<?xml version="1.0"?>
<svg width="24" height="24" xmlns="http://www.w3.org/2000/svg" xmlns:svg="http://www.w3.org/2000/svg">
 <g class="layer">
  <title>Layer 1</title>
  <path d="m23,11l-2,0l0,-2a1,1 0 0 0 -2,0l0,2l-2,0a1,1 0 0 0 0,2l2,0l0,2a1,1 0 0 0 2,0l0,-2l2,0a1,1 0 0 0 0,-2z" fill="#ffffff" id="svg_1" transform="matrix(1 0 0 1 0 0)"/>
  <path d="m9,12a6,6 0 1 0 -6,-6a6.01,6.01 0 0 0 6,6zm0,-10a4,4 0 1 1 -4,4a4,4 0 0 1 4,-4z" fill="#ffffff" id="svg_2"/>
  <path d="m9,14a9.01,9.01 0 0 0 -9,9a1,1 0 0 0 2,0a7,7 0 0 1 14,0a1,1 0 0 0 2,0a9.01,9.01 0 0 0 -9,-9z" fill="#ffffff" id="svg_3" transform="matrix(1 0 0 1 0 0)"/>
 </g>
</svg>