<?xml version="1.0"?>
<svg width="24" height="24" xmlns="http://www.w3.org/2000/svg" xmlns:svg="http://www.w3.org/2000/svg">
 <g class="layer">
  <title>Layer 1</title>
  <path d="m1,4.75l2.74,0a3.73,3.73 0 0 0 7.19,0l12.07,0a1,1 0 0 0 0,-2l-12.07,0a3.73,3.73 0 0 0 -7.19,0l-2.74,0a1,1 0 0 0 0,2zm6.33,-2.75a1.75,1.75 0 1 1 -1.75,1.75a1.75,1.75 0 0 1 1.75,-1.75z" fill="#fefefe" id="svg_1" transform="matrix(1 0 0 1 0 0)"/>
  <path d="m23,11l-2.74,0a3.73,3.73 0 0 0 -7.19,0l-12.07,0a1,1 0 0 0 0,2l12.07,0a3.73,3.73 0 0 0 7.19,0l2.74,0a1,1 0 0 0 0,-2zm-6.33,2.75a1.75,1.75 0 1 1 1.75,-1.75a1.75,1.75 0 0 1 -1.75,1.75z" fill="#ffffff" id="svg_2" transform="matrix(1 0 0 1 0 0)"/>
  <path d="m23,19.25l-12.07,0a3.73,3.73 0 0 0 -7.19,0l-2.74,0a1,1 0 0 0 0,2l2.74,0a3.73,3.73 0 0 0 7.19,0l12.07,0a1,1 0 0 0 0,-2zm-15.67,2.75a1.75,1.75 0 1 1 1.75,-1.75a1.75,1.75 0 0 1 -1.75,1.75z" fill="#ffffff" id="svg_3"/>
 </g>
</svg>